<mxfile host="app.diagrams.net" modified="2022-04-25T15:47:48.230Z" agent="5.0 (Windows NT 10.0; Win64; x64) AppleWebKit/537.36 (KHTML, like Gecko) Chrome/100.0.4896.127 Safari/537.36 Edg/100.0.1185.44" etag="2T7k7YW62L-C38otseVV" version="17.4.6" type="github">
  <diagram id="kgpKYQtTHZ0yAKxKKP6v" name="Page-1">
    <mxGraphModel dx="2512" dy="762" grid="1" gridSize="10" guides="1" tooltips="1" connect="1" arrows="1" fold="1" page="1" pageScale="1" pageWidth="850" pageHeight="1100" math="0" shadow="0">
      <root>
        <mxCell id="0" />
        <mxCell id="1" parent="0" />
        <mxCell id="3nuBFxr9cyL0pnOWT2aG-1" value=":Администратор &#xa;ресторана" style="shape=umlLifeline;perimeter=lifelinePerimeter;container=1;collapsible=0;recursiveResize=0;rounded=0;shadow=0;strokeWidth=1;" parent="1" vertex="1">
          <mxGeometry x="120" y="80" width="100" height="560" as="geometry" />
        </mxCell>
        <mxCell id="3nuBFxr9cyL0pnOWT2aG-4" value="" style="points=[];perimeter=orthogonalPerimeter;rounded=0;shadow=0;strokeWidth=1;" parent="3nuBFxr9cyL0pnOWT2aG-1" vertex="1">
          <mxGeometry x="45" y="90" width="10" height="40" as="geometry" />
        </mxCell>
        <mxCell id="urSNMq3e6lPLApbhoKxB-27" value="" style="points=[];perimeter=orthogonalPerimeter;rounded=0;shadow=0;strokeWidth=1;" vertex="1" parent="3nuBFxr9cyL0pnOWT2aG-1">
          <mxGeometry x="45" y="510" width="10" height="40" as="geometry" />
        </mxCell>
        <mxCell id="3nuBFxr9cyL0pnOWT2aG-5" value="Система &#xa;изменения&#xa;меню" style="shape=umlLifeline;perimeter=lifelinePerimeter;container=1;collapsible=0;recursiveResize=0;rounded=0;shadow=0;strokeWidth=1;" parent="1" vertex="1">
          <mxGeometry x="300" y="80" width="100" height="560" as="geometry" />
        </mxCell>
        <mxCell id="urSNMq3e6lPLApbhoKxB-6" value="" style="points=[];perimeter=orthogonalPerimeter;rounded=0;shadow=0;strokeWidth=1;" vertex="1" parent="3nuBFxr9cyL0pnOWT2aG-5">
          <mxGeometry x="45" y="90" width="10" height="40" as="geometry" />
        </mxCell>
        <mxCell id="urSNMq3e6lPLApbhoKxB-14" value="" style="points=[];perimeter=orthogonalPerimeter;rounded=0;shadow=0;strokeWidth=1;" vertex="1" parent="3nuBFxr9cyL0pnOWT2aG-5">
          <mxGeometry x="45" y="210" width="10" height="40" as="geometry" />
        </mxCell>
        <mxCell id="urSNMq3e6lPLApbhoKxB-16" value="" style="html=1;points=[];perimeter=orthogonalPerimeter;" vertex="1" parent="3nuBFxr9cyL0pnOWT2aG-5">
          <mxGeometry x="45" y="330" width="10" height="40" as="geometry" />
        </mxCell>
        <mxCell id="urSNMq3e6lPLApbhoKxB-17" value="Добавление позиции" style="edgeStyle=orthogonalEdgeStyle;html=1;align=left;spacingLeft=2;endArrow=block;rounded=0;entryX=1;entryY=0;" edge="1" target="urSNMq3e6lPLApbhoKxB-16" parent="3nuBFxr9cyL0pnOWT2aG-5">
          <mxGeometry relative="1" as="geometry">
            <mxPoint x="50" y="250" as="sourcePoint" />
            <Array as="points">
              <mxPoint x="80" y="250" />
            </Array>
          </mxGeometry>
        </mxCell>
        <mxCell id="urSNMq3e6lPLApbhoKxB-24" value="" style="html=1;points=[];perimeter=orthogonalPerimeter;" vertex="1" parent="3nuBFxr9cyL0pnOWT2aG-5">
          <mxGeometry x="45" y="470" width="10" height="50" as="geometry" />
        </mxCell>
        <mxCell id="urSNMq3e6lPLApbhoKxB-1" value="Меню" style="shape=umlLifeline;perimeter=lifelinePerimeter;whiteSpace=wrap;html=1;container=1;collapsible=0;recursiveResize=0;outlineConnect=0;" vertex="1" parent="1">
          <mxGeometry x="490" y="80" width="100" height="560" as="geometry" />
        </mxCell>
        <mxCell id="urSNMq3e6lPLApbhoKxB-11" value="" style="points=[];perimeter=orthogonalPerimeter;rounded=0;shadow=0;strokeWidth=1;" vertex="1" parent="urSNMq3e6lPLApbhoKxB-1">
          <mxGeometry x="45" y="120" width="10" height="130" as="geometry" />
        </mxCell>
        <mxCell id="urSNMq3e6lPLApbhoKxB-19" value="" style="points=[];perimeter=orthogonalPerimeter;rounded=0;shadow=0;strokeWidth=1;" vertex="1" parent="urSNMq3e6lPLApbhoKxB-1">
          <mxGeometry x="45" y="370" width="10" height="50" as="geometry" />
        </mxCell>
        <mxCell id="urSNMq3e6lPLApbhoKxB-21" value="" style="html=1;points=[];perimeter=orthogonalPerimeter;" vertex="1" parent="urSNMq3e6lPLApbhoKxB-1">
          <mxGeometry x="45" y="440" width="10" height="40" as="geometry" />
        </mxCell>
        <mxCell id="urSNMq3e6lPLApbhoKxB-22" value="Соединение меню&lt;br&gt;(0 сек, 15 сек)" style="edgeStyle=orthogonalEdgeStyle;html=1;align=left;spacingLeft=2;endArrow=block;rounded=0;entryX=1;entryY=0;" edge="1" target="urSNMq3e6lPLApbhoKxB-21" parent="urSNMq3e6lPLApbhoKxB-1">
          <mxGeometry x="0.0667" relative="1" as="geometry">
            <mxPoint x="50" y="420" as="sourcePoint" />
            <Array as="points">
              <mxPoint x="80" y="420" />
            </Array>
            <mxPoint as="offset" />
          </mxGeometry>
        </mxCell>
        <mxCell id="urSNMq3e6lPLApbhoKxB-5" value="" style="endArrow=classic;html=1;rounded=0;exitX=1.1;exitY=0.575;exitDx=0;exitDy=0;exitPerimeter=0;" edge="1" parent="1" source="3nuBFxr9cyL0pnOWT2aG-4">
          <mxGeometry width="50" height="50" relative="1" as="geometry">
            <mxPoint x="180" y="150" as="sourcePoint" />
            <mxPoint x="350" y="190" as="targetPoint" />
          </mxGeometry>
        </mxCell>
        <mxCell id="urSNMq3e6lPLApbhoKxB-7" value="Запрос на добавление&amp;nbsp;&lt;br&gt;позиции в меню&lt;br&gt;(0сек,15 сек)" style="text;html=1;align=center;verticalAlign=middle;resizable=0;points=[];autosize=1;strokeColor=none;fillColor=none;" vertex="1" parent="1">
          <mxGeometry x="190" y="140" width="150" height="50" as="geometry" />
        </mxCell>
        <mxCell id="urSNMq3e6lPLApbhoKxB-10" value="" style="endArrow=classic;html=1;rounded=0;exitX=1.1;exitY=0.925;exitDx=0;exitDy=0;exitPerimeter=0;" edge="1" parent="1" source="urSNMq3e6lPLApbhoKxB-6">
          <mxGeometry width="50" height="50" relative="1" as="geometry">
            <mxPoint x="400" y="380" as="sourcePoint" />
            <mxPoint x="540" y="210" as="targetPoint" />
          </mxGeometry>
        </mxCell>
        <mxCell id="urSNMq3e6lPLApbhoKxB-12" value="Запрос на&amp;nbsp;&lt;br&gt;меню&lt;br&gt;(0 сек, 1 мин)" style="text;html=1;align=center;verticalAlign=middle;resizable=0;points=[];autosize=1;strokeColor=none;fillColor=none;" vertex="1" parent="1">
          <mxGeometry x="400" y="150" width="90" height="50" as="geometry" />
        </mxCell>
        <mxCell id="urSNMq3e6lPLApbhoKxB-13" value="" style="endArrow=classic;html=1;rounded=0;entryX=0.9;entryY=0.4;entryDx=0;entryDy=0;entryPerimeter=0;" edge="1" parent="1" source="urSNMq3e6lPLApbhoKxB-1" target="urSNMq3e6lPLApbhoKxB-14">
          <mxGeometry width="50" height="50" relative="1" as="geometry">
            <mxPoint x="400" y="360" as="sourcePoint" />
            <mxPoint x="450" y="310" as="targetPoint" />
          </mxGeometry>
        </mxCell>
        <mxCell id="urSNMq3e6lPLApbhoKxB-15" value="Отправка снимка&amp;nbsp;&lt;br&gt;меню&lt;br&gt;(0 сек, 1 мин)" style="text;html=1;align=center;verticalAlign=middle;resizable=0;points=[];autosize=1;strokeColor=none;fillColor=none;" vertex="1" parent="1">
          <mxGeometry x="385" y="240" width="120" height="50" as="geometry" />
        </mxCell>
        <mxCell id="urSNMq3e6lPLApbhoKxB-18" value="" style="endArrow=classic;html=1;rounded=0;exitX=1;exitY=0.975;exitDx=0;exitDy=0;exitPerimeter=0;" edge="1" parent="1" source="urSNMq3e6lPLApbhoKxB-16" target="urSNMq3e6lPLApbhoKxB-19">
          <mxGeometry width="50" height="50" relative="1" as="geometry">
            <mxPoint x="400" y="350" as="sourcePoint" />
            <mxPoint x="530" y="449" as="targetPoint" />
          </mxGeometry>
        </mxCell>
        <mxCell id="urSNMq3e6lPLApbhoKxB-20" value="Отправка нового &lt;br&gt;журнала&lt;br&gt;(0 сек, 1 мин)" style="text;html=1;align=center;verticalAlign=middle;resizable=0;points=[];autosize=1;strokeColor=none;fillColor=none;" vertex="1" parent="1">
          <mxGeometry x="395" y="400" width="110" height="50" as="geometry" />
        </mxCell>
        <mxCell id="urSNMq3e6lPLApbhoKxB-23" value="" style="endArrow=classic;html=1;rounded=0;exitX=0.2;exitY=0.95;exitDx=0;exitDy=0;exitPerimeter=0;" edge="1" parent="1" source="urSNMq3e6lPLApbhoKxB-21" target="3nuBFxr9cyL0pnOWT2aG-5">
          <mxGeometry width="50" height="50" relative="1" as="geometry">
            <mxPoint x="400" y="330" as="sourcePoint" />
            <mxPoint x="450" y="280" as="targetPoint" />
          </mxGeometry>
        </mxCell>
        <mxCell id="urSNMq3e6lPLApbhoKxB-26" value="Отправка обновленного&amp;nbsp;&lt;br&gt;снимка меню&lt;br&gt;(0 сек, 1 мин)" style="text;html=1;align=center;verticalAlign=middle;resizable=0;points=[];autosize=1;strokeColor=none;fillColor=none;" vertex="1" parent="1">
          <mxGeometry x="375" y="500" width="150" height="50" as="geometry" />
        </mxCell>
        <mxCell id="urSNMq3e6lPLApbhoKxB-30" value="" style="endArrow=classic;html=1;rounded=0;exitX=0.5;exitY=0.8;exitDx=0;exitDy=0;exitPerimeter=0;" edge="1" parent="1" source="urSNMq3e6lPLApbhoKxB-24" target="3nuBFxr9cyL0pnOWT2aG-1">
          <mxGeometry width="50" height="50" relative="1" as="geometry">
            <mxPoint x="400" y="310" as="sourcePoint" />
            <mxPoint x="450" y="260" as="targetPoint" />
          </mxGeometry>
        </mxCell>
        <mxCell id="urSNMq3e6lPLApbhoKxB-31" value="Отправка обновленного&lt;br&gt;меню&lt;br&gt;(0 сек, 15 сек)" style="text;html=1;align=center;verticalAlign=middle;resizable=0;points=[];autosize=1;strokeColor=none;fillColor=none;" vertex="1" parent="1">
          <mxGeometry x="180" y="540" width="150" height="50" as="geometry" />
        </mxCell>
        <mxCell id="urSNMq3e6lPLApbhoKxB-32" value="Добавление блюда в меню" style="shape=umlFrame;whiteSpace=wrap;html=1;width=130;height=70;" vertex="1" parent="1">
          <mxGeometry x="-35" y="30" width="770" height="660" as="geometry" />
        </mxCell>
      </root>
    </mxGraphModel>
  </diagram>
</mxfile>
